# xmcd CD database file
#
# Track frame offsets:
#	150
#	26837
#	53360
#
# Disc length: 1063 seconds
#
# Revision: 0
# Processed by: cddbd v1.5PL3 Copyright (c) Steve Scherf et al.
# Submitted via: CDex 1.50beta9
#
DISCID=1a042503
DTITLE=華原 朋美 - YOU DON'T GIVE UP
DYEAR=1900
DGENRE=J-POP
TTITLE0=YOU DON'T GIVE UP(Single Mix)
TTITLE1=YOU DON'T GIVE UP(East meets West remix)
TTITLE2=YOU DON'T GIVE UP(Karaoke mix)
EXTD=
EXTT0=
EXTT1=
EXTT2=
PLAYORDER=
